# xmcd
#
# Track frame offsets:
#	182
#	11257
#	22302
#	32507
#	43512
#	53660
#	65390
#	77332
#	87440
#	99035
#	110960
#	123707
#	133647
#	142777
#	152637
#	162672
#	172627
#	182122
#	194782
#	205912
#	218550
#	229572
# Disc length: 3168 seconds
# Revision: 2
# Processed by: cddbd v1.5.1PL0 Copyright (c) Steve Scherf et al.
#
# Submitted via: libkcddb 0.10
#
DISCID=210c5e16
DTITLE=Various Artist - New Orleans 1
DYEAR=1900
DGENRE=
TTITLE0=Sugar Boy Crawford - Jock-A-Mo
TTITLE1=Sugar Boy Crawford - Overboard
TTITLE2=Slim Saunders - Let's have some fun
TTITLE3=Sugar Boy Crawford - Oo wee sugar
TTITLE4=Sugar Bay Crawford - No more heartaches
TTITLE5=Paul Gayten - Down boy
TTITLE6=Sugar Boy Crawford - What's wrong
TTITLE7=The Hawketts - Mardi Gras Mambo
TTITLE8=The Hawketts - Your time's up
TTITLE9=Paul Gayten - If you love me, tell me so
TTITLE10=Bobby Charles - See you later Aligator
TTITLE11=Charles Williams - So glad she's mine
TTITLE12=Bobby Charles - Time will tell
TTITLE13=Bobby Charles - Take it easy greasy
TTITLE14=Charles WIlliams - What can I do
TTITLE15=Bobby Charles - No use knocking
TTITLE16=Bobby Charles - You can suit yourself
TTITLE17=Clifton Chenier - The big wheel
TTITLE18=Clifton Chenier - Baby please
TTITLE19=Paul Gayten - Driving home, part 2
TTITLE20=Paul Gayten - For you my love
TTITLE21=Eddie Bo - Walk that walk
EXTD=
EXTT0=
EXTT1=
EXTT2=
EXTT3=
EXTT4=
EXTT5=
EXTT6=
EXTT7=
EXTT8=
EXTT9=
EXTT10=
EXTT11=
EXTT12=
EXTT13=
EXTT14=
EXTT15=
EXTT16=
EXTT17=
EXTT18=
EXTT19=
EXTT20=
EXTT21=
PLAYORDER=
